<?xml version="1.0" encoding="utf-8"?>
<!-- Generator: Adobe Illustrator 15.1.0, SVG Export Plug-In . SVG Version: 6.00 Build 0)  -->
<!DOCTYPE svg PUBLIC "-//W3C//DTD SVG 1.1//EN" "http://www.w3.org/Graphics/SVG/1.1/DTD/svg11.dtd">
<svg version="1.1" id="Calque_2" xmlns="http://www.w3.org/2000/svg" xmlns:xlink="http://www.w3.org/1999/xlink" x="0px" y="0px"
	 width="595.28px" height="841.89px" viewBox="0 0 595.28 841.89" enable-background="new 0 0 595.28 841.89" xml:space="preserve">
<g>
	<path fill="#FFFFFF" stroke="#000000" stroke-miterlimit="10" d="M229.677,411.006L251.5,535c0,0,2.5,2.75,5.75-1.5l-21.13-124.434
		"/>
	<polyline fill="#FFFFFF" stroke="#000000" stroke-miterlimit="10" points="225.25,398.25 227.625,411.662 238,408.5 
		236.058,395.375 	"/>
	<path fill="#FFFFFF" stroke="#000000" stroke-miterlimit="10" d="M204.5,358.75l8.25,40.104c0,0,10.514,0.654,18.875-1.604
		c10.181-2.75,17.339-10.417,17.339-10.417L238.5,349H235c0,0,6.75,28,8.25,33.25c-2.5,5.75-9.62,6.75-9.62,6.75l-11.38-37
		l-3.75,0.75c0,0,8,32.25,10,37.604c-5,3.521-10.5,2.309-10.5,2.309L208,358L204.5,358.75z"/>
</g>
<path fill="#FFFFFF" stroke="#000000" stroke-miterlimit="10" d="M258.167,360.667l-1.333,47.121c0,0-4.187-1.955-11.833-2.454
	c-2,17.5,6.667,16.667,9.5,18.167c-5.167,16.667,7.374,20.834,7.374,20.834L285.5,433.5c0,0,30.727-7.157,41.834-6.5
	c11.229,5.312,21.833,22.334,21.833,22.334s16.667-5.001,5-23.834c7.833-12.667,5.5-20,5.5-20L351,409.167
	c0,0-15.216-67.863-16-67.667S258.167,360.667,258.167,360.667z"/>
<path fill="#FFFFFF" stroke="#000000" stroke-miterlimit="10" d="M342.25,378.5c-26.25,3.167-30.75-22.25-30.75-22.25
	s-3.833,25.417-34.25,26.25c-6.583-0.333-9.891-2.281-9.891-2.281v0.188c0,0,3.657,6.91-5.469,19.664c0,0,2.513,33.277,42.596,29.36
	S337.75,386.5,337.75,386.5l4.5,2.5c-7.584-2.333-9-10.571-9-10.571"/>
<path fill="#FFFFFF" stroke="#000000" stroke-miterlimit="10" d="M335,341.5l27.5-5.833C358,333.5,327,329,317.834,328.333
	c-3.834-4.333-8.167-24.167-8.167-24.167l-47.793,10.667c0,0,5.179,26.332,3.069,26.666c-1.719,1.016-23.276,19.5-23.276,19.5
	l1.333,2l15.167-2.333L335,341.5z"/>
<path fill="#FFFFFF" stroke="#000000" stroke-miterlimit="10" d="M349.167,449.334l-9.226,13.014c0,0,2.324,1.136,3.893,6.485
	c0.667,7.167-5.601,8.001-5.601,8.001l4.017,9.833l-65.917,8.167L284.167,463c0,0,0,0,0-5.666c-7.667,0.5-13.5-4.167-13.5-4.167
	l-21,6.5c0,0,1.167,4.5-6.167,6.167s-9.5-5.5-9.5-5.5s-2.5-9.167,5.5-11c6.333-0.833,8.667,2.833,8.667,2.833l13.707-7.833
	L285.5,433.5c0,0,34.417-7.833,41.834-6.5C327.334,427,341.959,434.043,349.167,449.334z"/>
<path fill="#FFFFFF" stroke="#000000" stroke-miterlimit="10" d="M270.667,453.167l13.167-2.667l0.333,6.834
	C284.167,457.334,275.959,457.834,270.667,453.167z"/>
<path fill="#FFFFFF" stroke="#000000" stroke-miterlimit="10" d="M292.777,431.9"/>
<path fill="#FFFFFF" stroke="#000000" stroke-miterlimit="10" d="M298.333,502.833"/>
<path fill="#FFFFFF" stroke="#000000" stroke-miterlimit="10" d="M339.941,462.348c-3.5-2-5.774-1.681-5.774-1.681l3.583-13.786
	l-10.916-3.891l2.5,13.51l8.899,20.334"/>
<path fill="#FFFFFF" stroke="#000000" stroke-miterlimit="10" d="M320.5,511.25c0,0,10.75-3.076,12.75-3.538"/>
<path fill="#FFFFFF" stroke="#000000" stroke-miterlimit="10" d="M275.5,408.25l51.375-6.75c0,0,1.021,14.485-22.375,19.445
	S275.5,408.25,275.5,408.25z"/>
<path fill="#FFFFFF" stroke="#000000" stroke-miterlimit="10" d="M313.438,427.75c0,0,4.06,13.265-7.54,15.263
	c-10.064,0.843-9.261-12.028-9.261-12.028L313.438,427.75z"/>
<path fill="#FFFFFF" stroke="#000000" stroke-miterlimit="10" d="M248.167,452.167c0,0,2.055,4.631,1.5,7.5"/>
<path fill="#FFFFFF" stroke="#000000" stroke-miterlimit="10" d="M276.5,391.333c-3.333,0.833-2.667,4.083-2.667,4.083
	s0.814,3.417,3.583,3.417c3.299,0,3.25-4.333,3.25-4.333S279.833,390.5,276.5,391.333z"/>
<path fill="#FFFFFF" stroke="#000000" stroke-miterlimit="10" d="M325.5,386.833c-3.167,0-2.833,3.333-2.833,3.333
	s0.326,4.167,3.746,3.667s2.812-3.5,2.812-3.5S328.667,386.833,325.5,386.833z"/>
<polygon fill="#FFFFFF" stroke="#000000" stroke-miterlimit="10" points="317.834,328.333 265.371,340.656 264.622,330.874 
	313.55,318.734 "/>
<g>
	<path fill="#FFFFFF" stroke="#000000" stroke-miterlimit="10" d="M294.004,461.782l-1.61-29.802l-5.309,1.158l1.721,32.688
		c0,0,2.592-1.576,5.693-0.826C294.083,464.25,294.004,461.782,294.004,461.782l24.33-3.448v3.166c0,0,2.791-0.875,5.333-0.166
		c0.167-3.334-1.604-34.578-1.604-34.578l-5.188,0.622l1.459,30.956"/>
	<polygon fill="#FFFFFF" stroke="#000000" stroke-miterlimit="10" points="284.167,463 329.334,456.5 342.25,486.667 
		276.333,494.834 	"/>
</g>
<path fill="#FFFFFF" stroke="#000000" stroke-miterlimit="10" d="M296.022,468.779c0,2.039-1.728,3.691-3.859,3.691
	s-3.86-1.652-3.86-3.691c0-2.038,0.963-3.857,3.095-3.857S296.022,464.922,296.022,468.779z"/>
<path fill="#FFFFFF" stroke="#000000" stroke-miterlimit="10" d="M325.055,465.005c0,2.039-1.728,3.691-3.859,3.691
	s-3.86-1.652-3.86-3.691c0-2.038,0.964-3.857,3.096-3.857S325.055,461.147,325.055,465.005z"/>
<path fill="#FFFFFF" stroke="#000000" stroke-miterlimit="10" d="M250.333,457.835c0.417,4.832-3.825,8.833-8.542,8.833
	s-8.542-3.955-8.542-8.833c0-4.879,2.75-8.834,8.542-8.834C246.509,449.001,249.915,452.974,250.333,457.835z"/>
<path fill="#FFFFFF" stroke="#000000" stroke-miterlimit="10" d="M334.167,460.667c0,0,8.376-0.251,9.667,8.166
	s-5.601,8.001-5.601,8.001l-5.983-14.084L334.167,460.667z"/>
<path fill="#FFFFFF" stroke="#000000" stroke-miterlimit="10" d="M285.832,493.657l-1.665,17.843c0,0,7.231,0.389,13.473,0
	c0,0,5.696-14.316,5.528-19.991L285.832,493.657z"/>
<polygon fill="#FFFFFF" stroke="#000000" stroke-miterlimit="10" points="311.312,490.5 319.626,511.673 332.25,509.48 
	329.838,488.205 "/>
<path fill="#FFFFFF" stroke="#000000" stroke-miterlimit="10" d="M297.64,511.5l-2.39,14.75l-1.246,11.5c0,0-15.754-0.5-23.337-1
	C272.334,532,283,529.5,283,529.5l-2.333-20.02L297.64,511.5z"/>
<path fill="#FFFFFF" stroke="#000000" stroke-miterlimit="10" d="M332,508l-11.5,3.25l-3.647,1.764l8.897,24.736
	c0,0,15.25-0.25,20.5,0c1-3.25-13-7.75-13-7.75l2-22.75L332,508"/>
</svg>
