<?xml version="1.0" encoding="utf-8"?>
<!-- Generator: Adobe Illustrator 15.1.0, SVG Export Plug-In . SVG Version: 6.00 Build 0)  -->
<!DOCTYPE svg PUBLIC "-//W3C//DTD SVG 1.1//EN" "http://www.w3.org/Graphics/SVG/1.1/DTD/svg11.dtd">
<svg version="1.1" id="Calque_1" xmlns="http://www.w3.org/2000/svg" xmlns:xlink="http://www.w3.org/1999/xlink" x="0px" y="0px"
	 width="595.279px" height="841.89px" viewBox="0 0 595.279 841.89" enable-background="new 0 0 595.279 841.89"
	 xml:space="preserve">
<g id="Calque_2">
	<g>
		<path fill="#8A99A2" d="M127.527,381.55l52.214,296.68c0,0,5.981,6.58,13.758-3.589l-50.558-297.733"/>
		<polyline fill="#8A99A2" points="116.932,351.028 122.615,383.12 147.439,375.554 142.794,344.149 		"/>
		<path fill="#8A99A2" d="M67.283,256.517l19.74,95.958c0,0,25.158,1.564,45.162-3.838c24.362-6.58,41.487-24.925,41.487-24.925
			l-25.037-90.523h-8.375c0,0,16.151,66.996,19.74,79.558c-5.981,13.758-23.018,16.151-23.018,16.151l-27.229-88.531l-8.973,1.794
			c0,0,19.142,77.165,23.927,89.976c-11.964,8.425-25.124,5.525-25.124,5.525l-23.927-82.939L67.283,256.517z"/>
	</g>
	<path fill="#E2B67F" d="M195.693,261.104l-3.189,112.746c0,0-10.02-4.677-28.313-5.871c-4.786,41.872,15.952,39.88,22.73,43.469
		c-12.362,39.877,17.644,49.85,17.644,49.85l56.528-25.927c0,0,73.521-17.123,100.099-15.554
		c26.866,12.712,52.233,53.439,52.233,53.439s39.885-11.963,11.964-57.028c31.882-33.108,13.161-47.852,13.161-47.852l-20.734,8.773
		c0,0-36.411-162.375-38.282-161.907C377.658,215.711,195.693,261.104,195.693,261.104z"/>
	<path fill="#FDE8DE" d="M396.882,303.772c-62.809,7.579-73.576-53.237-73.576-53.237s-9.176,60.815-81.952,62.809
		c-15.751-0.797-23.668-5.459-23.668-5.459v0.451c0,0,8.751,16.533-13.084,47.049c0,0,6.012,79.62,101.919,70.251
		c95.908-9.374,79.594-102.722,79.594-102.722l10.769,5.982c-18.151-5.583-21.535-25.294-21.535-25.294"/>
	<path fill="#EAF0CE" d="M379.534,215.242l65.799-13.957c-10.767-5.185-84.94-15.952-106.871-17.548
		c-9.175-10.367-19.542-57.824-19.542-57.824l-114.357,25.523c0,0,12.394,63.005,7.342,63.804
		c-4.112,2.432-55.691,46.659-55.691,46.659l3.19,4.785l36.29-5.582L379.534,215.242z"/>
	<path fill="#54BAA6" d="M413.426,473.256l-22.073,31.138c0,0,5.561,2.721,9.319,15.521c1.59,17.146-13.406,19.142-13.406,19.142
		l9.612,23.529l-157.719,19.539l18.744-76.169c0,0,0,0,0-13.558c-18.344,1.196-32.301-9.968-32.301-9.968l-50.247,15.553
		c0,0,2.792,10.768-14.756,14.753c-17.548,3.991-22.731-13.16-22.731-13.16s-5.981-21.932,13.16-26.319
		c15.153-1.99,20.738,6.781,20.738,6.781l32.796-18.744l56.531-25.923c0,0,82.349-18.74,100.099-15.554
		C361.192,419.817,396.185,436.669,413.426,473.256z"/>
	<path fill="#E2B67F" d="M225.602,482.43l31.505-6.384l0.796,16.352C257.903,492.398,238.263,493.594,225.602,482.43z"/>
	<path fill="#FFFFFF" d="M278.505,431.542"/>
	<path fill="#FFFFFF" d="M291.796,601.267"/>
	<path fill="#E2B67F" d="M391.354,504.394c-8.374-4.785-13.811-4.019-13.811-4.019l8.574-32.988l-26.121-9.31l5.983,32.325
		l21.287,48.653"/>
	<path fill="#FFFFFF" d="M344.84,621.403c0,0,25.721-7.359,30.507-8.463"/>
	<path fill="#EF80B1" d="M237.166,374.955l122.928-16.151c0,0,2.44,34.658-53.537,46.527
		C250.575,417.201,237.166,374.955,237.166,374.955z"/>
	<path fill="#FDE8DE" d="M327.941,421.613c0,0,9.714,31.74-18.041,36.521c-24.079,2.024-22.159-28.772-22.159-28.772
		L327.941,421.613z"/>
	<path fill="#FFFFFF" d="M171.766,480.038c0,0,4.918,11.08,3.589,17.945"/>
	<path fill="#559889" d="M239.559,334.479c-7.975,1.993-6.382,9.77-6.382,9.77s1.946,8.176,8.573,8.176
		c7.894,0,7.776-10.368,7.776-10.368S247.534,332.485,239.559,334.479z"/>
	<path fill="#559889" d="M356.803,323.711c-7.582,0-6.782,7.975-6.782,7.975s0.779,9.971,8.962,8.775
		c8.183-1.197,6.729-8.375,6.729-8.375S364.377,323.711,356.803,323.711z"/>
	<polygon fill="#FCE389" points="338.462,183.737 212.93,213.224 211.138,189.817 328.211,160.77 	"/>
	<g>
		<path fill="#6E60A1" d="M281.44,503.044l-3.851-71.31l-12.704,2.771l4.12,78.212c0,0,6.202-3.771,13.621-1.978
			C281.629,508.946,281.44,503.044,281.44,503.044l58.217-8.253v7.575c0,0,6.673-2.094,12.756-0.397
			c0.404-7.978-3.837-82.736-3.837-82.736l-12.414,1.491l3.49,74.067"/>
		<polygon fill="#6E60A1" points="257.903,505.956 365.978,490.403 396.882,562.585 239.159,582.125 		"/>
	</g>
	<path fill="#FCE389" d="M286.27,519.784c0,4.879-4.136,8.832-9.232,8.832c-5.101,0-9.233-3.953-9.233-8.832
		c0-4.874,2.304-9.23,7.404-9.23C280.309,510.553,286.27,510.553,286.27,519.784z"/>
	<path fill="#FCE389" d="M355.738,510.754c0,4.879-4.138,8.833-9.234,8.833c-5.096,0-9.232-3.954-9.232-8.833
		c0-4.878,2.308-9.229,7.408-9.229S355.738,501.525,355.738,510.754z"/>
	<path fill="#FDE8DE" d="M176.948,493.599c0.998,11.562-9.152,21.132-20.438,21.132c-11.288,0-20.438-9.462-20.438-21.132
		c0-11.674,6.58-21.137,20.438-21.137C167.798,472.462,175.948,481.968,176.948,493.599z"/>
	<path fill="#FDE8DE" d="M377.537,500.375c0,0,20.046-0.603,23.135,19.539c3.084,20.138-13.406,19.142-13.406,19.142l-14.315-33.699
		L377.537,500.375z"/>
	<path fill="#FDE8DE" d="M261.887,579.311l-3.984,42.69c0,0,17.301,0.931,32.239,0c0,0,13.628-34.255,13.228-47.831L261.887,579.311
		z"/>
	<polygon fill="#FDE8DE" points="322.854,571.754 342.75,622.417 372.955,617.169 367.181,566.263 	"/>
	<path fill="#FCE389" d="M290.142,622.001l-5.721,35.292l-2.981,27.517c0,0-37.694-1.196-55.838-2.394
		c3.989-11.364,29.509-17.347,29.509-17.347l-5.585-53.237L290.142,622.001z"/>
	<path fill="#FCE389" d="M372.356,613.626l-27.517,7.776l-8.727,4.22l16.327,61.342c0,0,41.449-2.753,54.011-2.154
		c2.395-7.776-31.104-18.543-31.104-18.543l4.786-54.435L372.356,613.626"/>
</g>
<g>
	<path fill="#EFE4DC" d="M419.916,505.287c0,0,5.98-19.179,15.553,0c0,0,16.749,17.875,6.579,55.859c0,0,15.255-1.495,21.535,2.991
		c0,0-4.786-30.208,22.73-54.733c0,0,11.964-10.369,14.059,4.238c0,0,5.98,49.897-21.236,63.954c0,0,9.868,16.449,8.973,32.899
		c0,0,54.434-7.477,54.434,52.341c0,0,9.57-7.179,13.161,6.879c0,0,4.188,17.646-19.443,13.16c0,0-26.318,12.562-60.114,8.075
		c0,0-10.47,0.897-5.983-4.486H451.02c0,0-5.384,2.094-7.178-1.794l-8.374-0.299c0,0-7.776,0.896-2.691-7.776l8.674-15.422
		c0,0-6.581-9.403-2.992-27.648c0,0-34.694-12.86-31.703-36.488c0,0,2.992-16.45,17.048-26.917
		C423.803,570.12,400.176,544.538,419.916,505.287z"/>
	<path fill="#E8B8B8" d="M425.301,515.685c0,0-13.46,27.516,4.783,49.947l6.582-2.991
		C436.666,562.641,440.553,531.237,425.301,515.685z"/>
	<path fill="#E8B8B8" d="M492.296,523.76c0,0-19.144,8.973-24.227,43.367l7.478,6.281
		C475.547,573.409,494.687,557.857,492.296,523.76z"/>
	<path fill="#E8B8B8" d="M440.814,610.027c0,0,5.534,9.485,11.327,0H440.814z"/>
	<path fill="#161615" d="M428.025,587.181c2.483,0,4.495,2.542,4.495,5.683c0,3.136-2.012,5.683-4.495,5.683
		c-2.486,0-4.496-2.547-4.496-5.683C423.529,589.723,425.539,587.181,428.025,587.181z"/>
	<ellipse fill="#161615" cx="470.568" cy="598.156" rx="4.892" ry="6.181"/>
	<ellipse fill="#FFFFFF" cx="427.893" cy="591.148" rx="2.59" ry="3.192"/>
	<path fill="#FFFFFF" d="M469.764,592.849c1.432,0,2.593,1.427,2.593,3.193c0,1.761-1.161,3.19-2.593,3.19s-2.591-1.43-2.591-3.19
		C467.174,594.276,468.333,592.849,469.764,592.849z"/>
	<circle fill="#FFFFFF" cx="430.483" cy="595.663" r="1.075"/>
	<circle fill="#FFFFFF" cx="472.357" cy="600.949" r="1.075"/>
	<path fill="#DDD0C7" d="M422.109,501.132c0,0,3.874-9.174,10.413,0c0,0,22.286,24.722,9.525,60.215l-4.938,1.197
		c0,0,4.542-23.928,1.149-35.093C438.26,527.452,431.557,499.884,422.109,501.132z"/>
	<path fill="#DDD0C7" d="M486.313,510.105c0,0,16.948-6.384,6.19,35.292c0,0-7.188,21.932-16.957,28.012l3.589,4.487
		c0,0,18.942-11.562,21.337-40.872C500.472,537.024,506.252,491.562,486.313,510.105z"/>
	<path fill="#DDD0C7" d="M437.11,604.336c0,0,10.92-11.085,19.894,1.673c0,0,2.836,2.594-9.947,1.397
		C447.056,607.407,437.749,607.249,437.11,604.336z"/>
	<path fill="#DDD0C7" d="M438.459,633.128c0,0,26.851,4.383,41.937-11.963c0,0-7.243,23.73-41.937,21.137V633.128z"/>
	<path fill="#DDD0C7" d="M443.046,665.827c0,0,5.186,5.786,6.579,5.982c0,0-6.981,9.369-5.583,12.763c0,0-13.804,0.794-12.484-1.794
		C431.557,682.778,444.842,678.193,443.046,665.827z"/>
	<path fill="#DDD0C7" d="M489.902,641.106c0,0-16.35,4.981-21.833,24.721c0,0-4.024,12.764-8.64,15.955
		c0,0-10.329,4.912-14.938,0.785c-0.156-0.14-0.307-0.289-0.449-0.448c-4.346-4.916,0.143,0.159,0.143,0.159
		s-2.336,4.687,8.434,4.687h17.146c0,0,6.18-7.776,8.373-7.776c0,0-5.166-26.717,14.366-38.082H489.902z"/>
	<path fill="#DDD0C7" d="M540.945,672.01l2.195-7.978c0,0,5.184-3.589,8.375,3.986c0,0,4.214,11.889-8.212,14.981
		c-0.248,0.062-0.5,0.137-0.762,0.174c-8.674,1.285-2.99,0.201-5.384,0L540.945,672.01z"/>
</g>
<ellipse fill="#FFFFFF" cx="241.752" cy="338.469" rx="3.756" ry="4.121"/>
<ellipse fill="#FFFFFF" cx="357.904" cy="327.831" rx="3.755" ry="4.122"/>
</svg>
