<?xml version="1.0" encoding="utf-8"?>
<!-- Generator: Adobe Illustrator 15.1.0, SVG Export Plug-In . SVG Version: 6.00 Build 0)  -->
<!DOCTYPE svg PUBLIC "-//W3C//DTD SVG 1.1//EN" "http://www.w3.org/Graphics/SVG/1.1/DTD/svg11.dtd">
<svg version="1.1" id="Calque_1" xmlns="http://www.w3.org/2000/svg" xmlns:xlink="http://www.w3.org/1999/xlink" x="0px" y="0px"
	 width="595.279px" height="841.89px" viewBox="0 0 595.279 841.89" enable-background="new 0 0 595.279 841.89"
	 xml:space="preserve">
<g id="Calque_2">
	<g>
		<path fill="#8A99A2" d="M229.677,411.006L251.5,535c0,0,2.5,2.75,5.75-1.5l-21.13-124.434"/>
		<polyline fill="#8A99A2" points="225.25,398.25 227.625,411.662 238,408.5 236.058,395.375 		"/>
		<path fill="#8A99A2" d="M204.5,358.75l8.25,40.104c0,0,10.515,0.654,18.875-1.604c10.182-2.75,17.339-10.417,17.339-10.417
			L238.5,349H235c0,0,6.75,28,8.25,33.25c-2.5,5.75-9.62,6.75-9.62,6.75l-11.38-37l-3.75,0.75c0,0,8,32.25,10,37.604
			c-5,3.521-10.5,2.309-10.5,2.309L208,358L204.5,358.75z"/>
	</g>
	<path fill="#E2B67F" d="M258.167,360.667l-1.333,47.121c0,0-4.188-1.955-11.833-2.454c-2,17.5,6.667,16.667,9.5,18.167
		c-5.167,16.666,7.374,20.834,7.374,20.834L285.5,433.5c0,0,30.728-7.156,41.835-6.5c11.229,5.312,21.831,22.334,21.831,22.334
		s16.669-5,5-23.834c7.835-12.667,5.5-20,5.5-20l-8.665,3.667c0,0-15.218-67.863-16-67.667
		C334.217,341.696,258.167,360.667,258.167,360.667z"/>
	<path fill="#FDE8DE" d="M342.251,378.5c-26.25,3.167-30.75-22.25-30.75-22.25s-3.835,25.417-34.251,26.25
		c-6.583-0.333-9.892-2.281-9.892-2.281v0.188c0,0,3.657,6.91-5.469,19.664c0,0,2.513,33.276,42.596,29.36
		c40.083-3.918,33.266-42.931,33.266-42.931l4.5,2.5c-7.586-2.333-9-10.571-9-10.571"/>
	<path fill="#EAF0CE" d="M335.001,341.5l27.5-5.833c-4.5-2.167-35.5-6.667-44.666-7.334c-3.834-4.333-8.167-24.167-8.167-24.167
		l-47.794,10.667c0,0,5.18,26.332,3.068,26.666c-1.719,1.016-23.275,19.5-23.275,19.5l1.333,2l15.167-2.333L335.001,341.5z"/>
	<path fill="#54BAA6" d="M349.166,449.333l-9.226,13.014c0,0,2.324,1.137,3.895,6.486c0.665,7.166-5.603,8-5.603,8l4.017,9.834
		l-65.916,8.166L284.167,463c0,0,0,0,0-5.666c-7.667,0.5-13.5-4.166-13.5-4.166l-21,6.5c0,0,1.167,4.5-6.167,6.166
		c-7.334,1.668-9.5-5.5-9.5-5.5s-2.5-9.166,5.5-11c6.333-0.832,8.667,2.834,8.667,2.834l13.707-7.834L285.5,433.5
		c0,0,34.417-7.832,41.835-6.5C327.335,427,341.96,434.042,349.166,449.333z"/>
	<path fill="#E2B67F" d="M270.667,453.167l13.167-2.668l0.333,6.834C284.167,457.333,275.959,457.833,270.667,453.167z"/>
	<path fill="#FFFFFF" d="M292.777,431.9"/>
	<path fill="#FFFFFF" d="M298.332,502.833"/>
	<path fill="#E2B67F" d="M339.941,462.347c-3.5-2-5.772-1.68-5.772-1.68l3.583-13.787l-10.916-3.891l2.5,13.51l8.897,20.334"/>
	<path fill="#FFFFFF" d="M320.501,511.25c0,0,10.75-3.076,12.75-3.537"/>
	<path fill="#EF80B1" d="M275.5,408.25l51.376-6.75c0,0,1.021,14.485-22.375,19.445C281.104,425.906,275.5,408.25,275.5,408.25z"/>
	<path fill="#FDE8DE" d="M313.438,427.75c0,0,4.06,13.266-7.54,15.264c-10.063,0.846-9.261-12.025-9.261-12.025L313.438,427.75z"/>
	<path fill="#FFFFFF" d="M248.167,452.167c0,0,2.056,4.631,1.5,7.5"/>
	<path fill="#559889" d="M276.5,391.333c-3.333,0.833-2.667,4.083-2.667,4.083s0.813,3.417,3.583,3.417
		c3.299,0,3.25-4.333,3.25-4.333S279.833,390.5,276.5,391.333z"/>
	<path fill="#559889" d="M325.501,386.833c-3.169,0-2.835,3.333-2.835,3.333s0.326,4.167,3.746,3.667s2.812-3.5,2.812-3.5
		S328.666,386.833,325.501,386.833z"/>
	<polygon fill="#FCE389" points="317.835,328.333 265.371,340.656 264.622,330.874 313.551,318.734 	"/>
	<g>
		<path fill="#6E60A1" d="M294.004,461.783l-1.609-29.803l-5.31,1.158l1.722,32.688c0,0,2.592-1.576,5.692-0.826
			C294.083,464.25,294.004,461.783,294.004,461.783l24.331-3.449v3.166c0,0,2.789-0.875,5.331-0.166
			c0.169-3.334-1.604-34.578-1.604-34.578l-5.188,0.623l1.459,30.955"/>
		<polygon fill="#6E60A1" points="284.167,463 329.335,456.5 342.251,486.667 276.333,494.833 		"/>
	</g>
	<path fill="#FCE389" d="M296.022,468.779c0,2.039-1.729,3.691-3.858,3.691c-2.132,0-3.859-1.652-3.859-3.691
		c0-2.037,0.963-3.857,3.095-3.857S296.022,464.921,296.022,468.779z"/>
	<path fill="#FCE389" d="M325.055,465.005c0,2.039-1.729,3.691-3.859,3.691s-3.858-1.652-3.858-3.691s0.964-3.857,3.096-3.857
		S325.055,461.148,325.055,465.005z"/>
	<path fill="#FDE8DE" d="M250.333,457.835c0.417,4.832-3.825,8.832-8.542,8.832c-4.718,0-8.542-3.955-8.542-8.832
		c0-4.879,2.75-8.834,8.542-8.834C246.509,449.001,249.915,452.974,250.333,457.835z"/>
	<path fill="#FDE8DE" d="M334.166,460.667c0,0,8.378-0.252,9.669,8.166c1.289,8.416-5.603,8-5.603,8l-5.983-14.084L334.166,460.667z
		"/>
	<path fill="#FDE8DE" d="M285.832,493.658l-1.665,17.842c0,0,7.23,0.389,13.474,0c0,0,5.696-14.316,5.528-19.99L285.832,493.658z"/>
	<polygon fill="#FDE8DE" points="311.312,490.5 319.627,511.673 332.251,509.48 329.839,488.205 	"/>
	<path fill="#FCE389" d="M297.64,511.5l-2.391,14.75l-1.246,11.5c0,0-15.754-0.5-23.337-1C272.334,532,283,529.5,283,529.5
		l-2.333-20.02L297.64,511.5z"/>
	<path fill="#FCE389" d="M332.001,508l-11.5,3.25l-3.647,1.764l8.897,24.736c0,0,15.25-0.25,20.5,0c1-3.25-13-7.75-13-7.75l2-22.75
		L332.001,508"/>
</g>
<g id="Calque_3">
	<g>
		<path fill="#EFE4DC" d="M351.878,462.72c0,0,2.5-8.016,6.5,0c0,0,7,7.471,2.75,23.346c0,0,6.375-0.625,9,1.25
			c0,0-2-12.625,9.5-22.875c0,0,5-4.334,5.875,1.771c0,0,2.5,20.854-8.875,26.729c0,0,4.125,6.875,3.75,13.75
			c0,0,22.75-3.125,22.75,21.875c0,0,4-3,5.5,2.875c0,0,1.75,7.375-8.125,5.5c0,0-11,5.25-25.125,3.375c0,0-4.375,0.375-2.5-1.875
			h-8c0,0-2.25,0.875-3-0.75l-3.5-0.125c0,0-3.25,0.375-1.125-3.25l3.625-6.445c0,0-2.75-3.93-1.25-11.555
			c0,0-14.5-5.375-13.25-15.25c0,0,1.25-6.875,7.125-11.25C353.503,489.816,343.628,479.125,351.878,462.72z"/>
		<path fill="#E8B8B8" d="M354.128,467.066c0,0-5.625,11.5,2,20.875l2.75-1.25C358.878,486.691,360.503,473.566,354.128,467.066z"/>
		<path fill="#E8B8B8" d="M382.128,470.441c0,0-8,3.75-10.125,18.125l3.125,2.625C375.128,491.191,383.128,484.691,382.128,470.441z
			"/>
		<path fill="#E8B8B8" d="M361.545,506.066c0,0,1.75,3,3.583,0H361.545z"/>
		<ellipse fill="#161615" cx="355.266" cy="499.322" rx="1.879" ry="2.375"/>
		<ellipse fill="#161615" cx="373.048" cy="501.534" rx="2.044" ry="2.583"/>
		<ellipse fill="#FFFFFF" cx="355.212" cy="498.605" rx="1.083" ry="1.334"/>
		<ellipse fill="#FFFFFF" cx="372.712" cy="500.65" rx="1.083" ry="1.334"/>
		<circle fill="#FFFFFF" cx="356.295" cy="500.492" r="0.449"/>
		<circle fill="#FFFFFF" cx="373.795" cy="502.701" r="0.449"/>
		<path fill="#DDD0C7" d="M352.795,460.984c0,0,1.619-3.834,4.352,0c0,0,9.314,10.332,3.981,25.166l-2.064,0.5
			c0,0,1.898-10,0.481-14.666C359.545,471.984,356.743,460.462,352.795,460.984z"/>
		<path fill="#DDD0C7" d="M379.628,464.734c0,0,7.083-2.668,2.587,14.75c0,0-3.004,9.166-7.087,11.707l1.5,1.875
			c0,0,7.917-4.832,8.917-17.082C385.545,475.984,387.961,456.984,379.628,464.734z"/>
		<path fill="#DDD0C7" d="M359.063,504.117c0,0,4.564-4.633,8.314,0.699c0,0,1.186,1.084-4.157,0.584
			C363.22,505.4,359.331,505.333,359.063,504.117z"/>
		<path fill="#DDD0C7" d="M359.628,516.15c0,0,11.222,1.832,17.526-5c0,0-3.026,9.918-17.526,8.834V516.15z"/>
		<path fill="#DDD0C7" d="M361.545,529.816c0,0,2.167,2.418,2.75,2.5c0,0-2.918,3.916-2.334,5.334c0,0-5.769,0.332-5.218-0.75
			C356.743,536.9,362.295,534.984,361.545,529.816z"/>
		<path fill="#DDD0C7" d="M381.128,519.484c0,0-6.833,2.082-9.125,10.332c0,0-1.682,5.334-3.611,6.668c0,0-4.316,2.053-6.243,0.328
			c-0.065-0.059-0.128-0.121-0.188-0.188c-1.816-2.055,0.06,0.066,0.06,0.066s-0.976,1.959,3.524,1.959h7.167
			c0,0,2.582-3.25,3.499-3.25c0,0-2.159-11.166,6.004-15.916H381.128z"/>
		<path fill="#DDD0C7" d="M402.461,532.4l0.917-3.334c0,0,2.167-1.5,3.5,1.666c0,0,1.762,4.969-3.432,6.262
			c-0.104,0.025-0.209,0.057-0.318,0.072c-3.625,0.537-1.25,0.084-2.25,0L402.461,532.4z"/>
	</g>
</g>
<ellipse fill="#FFFFFF" cx="277.417" cy="393.001" rx="1.57" ry="1.722"/>
<ellipse fill="#FFFFFF" cx="325.961" cy="388.555" rx="1.569" ry="1.722"/>
</svg>
